<svg width="64" height="64" viewBox="0 0 64 64" fill="none" xmlns="http://www.w3.org/2000/svg">
<path fill-rule="evenodd" clip-rule="evenodd" d="M30.9867 23.6797C30.9867 22.5751 31.8821 21.6797 32.9867 21.6797H46.9867C48.0913 21.6797 48.9867 22.5751 48.9867 23.6797C48.9867 24.7843 48.0913 25.6797 46.9867 25.6797H32.9867C31.8821 25.6797 30.9867 24.7843 30.9867 23.6797Z" fill="#5CDB1D"/>
<path fill-rule="evenodd" clip-rule="evenodd" d="M26.4275 18.2655C27.2086 19.0465 27.2086 20.3129 26.4275 21.0939L20.4275 27.0939C19.6465 27.8749 18.3801 27.8749 17.5991 27.0939L15.5991 25.0939C14.818 24.3129 14.818 23.0465 15.5991 22.2655C16.3801 21.4844 17.6465 21.4844 18.4275 22.2655L19.0133 22.8513L23.5991 18.2655C24.3801 17.4844 25.6465 17.4844 26.4275 18.2655Z" fill="#5CDB1D"/>
<path fill-rule="evenodd" clip-rule="evenodd" d="M30.9867 42.3462C30.9867 41.2416 31.8821 40.3462 32.9867 40.3462H46.9867C48.0913 40.3462 48.9867 41.2416 48.9867 42.3462C48.9867 43.4508 48.0913 44.3462 46.9867 44.3462H32.9867C31.8821 44.3462 30.9867 43.4508 30.9867 42.3462Z" fill="#5CDB1D"/>
<path fill-rule="evenodd" clip-rule="evenodd" d="M26.4275 36.932C27.2086 37.713 27.2086 38.9794 26.4275 39.7604L20.4275 45.7604C19.6465 46.5415 18.3801 46.5415 17.5991 45.7604L15.5991 43.7604C14.818 42.9794 14.818 41.713 15.5991 40.932C16.3801 40.1509 17.6465 40.1509 18.4275 40.932L19.0133 41.5178L23.5991 36.932C24.3801 36.1509 25.6465 36.1509 26.4275 36.932Z" fill="#5CDB1D"/>
<path fill-rule="evenodd" clip-rule="evenodd" d="M8.25243 8.25262C11.811 4.69403 17.1361 3.3335 24 3.3335H40C46.8639 3.3335 52.1889 4.69403 55.7475 8.25262C59.3061 11.8112 60.6666 17.1362 60.6666 24.0002V40.0002C60.6666 46.8641 59.3061 52.1891 55.7475 55.7477C52.1889 59.3063 46.8639 60.6668 40 60.6668H24C17.1361 60.6668 11.811 59.3063 8.25243 55.7477C4.69385 52.1891 3.33331 46.8641 3.33331 40.0002V24.0002C3.33331 17.1362 4.69385 11.8112 8.25243 8.25262ZM11.0809 11.081C8.63944 13.5225 7.33331 17.5308 7.33331 24.0002V40.0002C7.33331 46.4696 8.63944 50.4779 11.0809 52.9193C13.5223 55.3607 17.5306 56.6668 24 56.6668H40C46.4694 56.6668 50.4777 55.3607 52.9191 52.9193C55.3605 50.4779 56.6666 46.4696 56.6666 40.0002V24.0002C56.6666 17.5308 55.3605 13.5225 52.9191 11.081C50.4777 8.63963 46.4694 7.3335 40 7.3335H24C17.5306 7.3335 13.5223 8.63963 11.0809 11.081Z" fill="#5CDB1D"/>
</svg>
