<svg viewBox="0 0 20 20" fill="none" xmlns="http://www.w3.org/2000/svg" focusable="false">
<path d="M10 18C7.77778 18 5.88889 17.2222 4.33333 15.6667C2.77778 14.1111 2 12.2222 2 10C2 7.77778 2.77778 5.88889 4.33333 4.33333C5.88889 2.77778 7.77778 2 10 2C10.2074 2 10.4111 2.00741 10.6111 2.02222C10.8111 2.03704 11.0074 2.05926 11.2 2.08889C10.5926 2.51852 10.1074 3.07778 9.74444 3.76667C9.38148 4.45556 9.2 5.2 9.2 6C9.2 7.33333 9.66667 8.46667 10.6 9.4C11.5333 10.3333 12.6667 10.8 14 10.8C14.8148 10.8 15.563 10.6185 16.2444 10.2556C16.9259 9.89259 17.4815 9.40741 17.9111 8.8C17.9407 8.99259 17.963 9.18889 17.9778 9.38889C17.9926 9.58889 18 9.79259 18 10C18 12.2222 17.2222 14.1111 15.6667 15.6667C14.1111 17.2222 12.2222 18 10 18ZM10 16.2222C11.3037 16.2222 12.4741 15.863 13.5111 15.1444C14.5481 14.4259 15.3037 13.4889 15.7778 12.3333C15.4815 12.4074 15.1852 12.4667 14.8889 12.5111C14.5926 12.5556 14.2963 12.5778 14 12.5778C12.1778 12.5778 10.6259 11.937 9.34444 10.6556C8.06296 9.37407 7.42222 7.82222 7.42222 6C7.42222 5.7037 7.44444 5.40741 7.48889 5.11111C7.53333 4.81481 7.59259 4.51852 7.66667 4.22222C6.51111 4.6963 5.57407 5.45185 4.85556 6.48889C4.13704 7.52593 3.77778 8.6963 3.77778 10C3.77778 11.7185 4.38519 13.1852 5.6 14.4C6.81482 15.6148 8.28148 16.2222 10 16.2222Z" fill="currentColor"/>
</svg>
