<svg width="64" height="64" viewBox="0 0 64 64" fill="none" xmlns="http://www.w3.org/2000/svg">
<path fill-rule="evenodd" clip-rule="evenodd" d="M11.0809 11.081C8.6395 13.5225 7.33337 17.5308 7.33337 24.0002V40.0002C7.33337 46.4696 8.6395 50.4779 11.0809 52.9193C13.5223 55.3607 17.5306 56.6668 24 56.6668H37.3989C36.087 54.5386 35.3334 52.0276 35.3334 49.3335C35.3334 44.927 37.3527 40.9686 40.5938 38.4093C42.9889 36.4836 46.0384 35.3335 49.3334 35.3335C52.0275 35.3335 54.5385 36.0871 56.6667 37.399V24.0002C56.6667 17.5308 55.3606 13.5225 52.9192 11.081C50.4777 8.63963 46.4695 7.3335 40 7.3335H24C17.5306 7.3335 13.5223 8.63963 11.0809 11.081ZM8.25249 8.25262C11.8111 4.69403 17.1361 3.3335 24 3.3335H40C46.864 3.3335 52.189 4.69403 55.7476 8.25262C59.3062 11.8112 60.6667 17.1362 60.6667 24.0002V40.0406C60.6667 40.6002 60.6668 41.2676 60.6044 41.9231C60.5274 42.7315 59.9693 43.4131 59.192 43.648C58.4147 43.8829 57.5725 43.6245 57.0607 42.9941C55.2417 40.7536 52.4719 39.3335 49.3334 39.3335C46.9787 39.3335 44.8047 40.1542 43.0944 41.5313C43.089 41.5356 43.0837 41.5398 43.0784 41.544C40.7774 43.3582 39.3334 46.1702 39.3334 49.3335C39.3334 52.472 40.7535 55.2418 42.994 57.0608C43.6244 57.5726 43.8828 58.4148 43.6479 59.1921C43.4129 59.9694 42.7314 60.5275 41.923 60.6045C41.2675 60.6669 40.6001 60.6669 40.0404 60.6668H24C17.1361 60.6668 11.8111 59.3063 8.25249 55.7477C4.69391 52.1891 3.33337 46.8641 3.33337 40.0002V24.0002C3.33337 17.1362 4.69391 11.8112 8.25249 8.25262Z" fill="#E39334"/>
<path fill-rule="evenodd" clip-rule="evenodd" d="M4.72009 18.9595C4.72009 17.8549 5.61552 16.9595 6.72009 16.9595H57.28C58.3846 16.9595 59.28 17.8549 59.28 18.9595C59.28 20.064 58.3846 20.9595 57.28 20.9595H6.72009C5.61552 20.9595 4.72009 20.064 4.72009 18.9595Z" fill="#E39334"/>
<path fill-rule="evenodd" clip-rule="evenodd" d="M22.7201 3.62646C23.8247 3.62646 24.7201 4.5219 24.7201 5.62646V18.5864C24.7201 19.691 23.8247 20.5864 22.7201 20.5864C21.6155 20.5864 20.7201 19.691 20.7201 18.5864V5.62646C20.7201 4.5219 21.6155 3.62646 22.7201 3.62646Z" fill="#E39334"/>
<path fill-rule="evenodd" clip-rule="evenodd" d="M41.28 3.62646C42.3846 3.62646 43.28 4.5219 43.28 5.62646V17.3866C43.28 18.4911 42.3846 19.3866 41.28 19.3866C40.1755 19.3866 39.28 18.4911 39.28 17.3866V5.62646C39.28 4.5219 40.1755 3.62646 41.28 3.62646Z" fill="#E39334"/>
<path fill-rule="evenodd" clip-rule="evenodd" d="M49.3334 39.3335C46.9787 39.3335 44.8047 40.1542 43.0944 41.5313C43.089 41.5356 43.0837 41.5398 43.0783 41.544C40.7774 43.3582 39.3334 46.1702 39.3334 49.3335C39.3334 52.472 40.7535 55.2418 42.994 57.0608C42.9966 57.0629 42.9992 57.065 43.0017 57.0671C43.0051 57.0699 43.0084 57.0726 43.0118 57.0754C44.7104 58.4873 46.9261 59.3335 49.3334 59.3335C51.8492 59.3335 54.1357 58.3898 55.9343 56.8434C58.0133 54.9819 59.3334 52.3166 59.3334 49.3335C59.3334 46.9263 58.4872 44.7106 57.0753 43.0119C57.0704 43.006 57.0655 43.0001 57.0607 42.9941C55.2417 40.7536 52.4719 39.3335 49.3334 39.3335ZM40.5937 38.4093C42.9889 36.4836 46.0384 35.3335 49.3334 35.3335C53.7107 35.3335 57.6043 37.3229 60.1588 40.4639C62.1558 42.8707 63.3334 45.9848 63.3334 49.3335C63.3334 53.5443 61.4587 57.2743 58.5851 59.839C58.5767 59.8465 58.5682 59.854 58.5596 59.8613C56.0935 61.9883 52.8915 63.3335 49.3334 63.3335C45.9847 63.3335 42.8706 62.1559 40.4638 60.1589C37.3228 57.6045 35.3334 53.7108 35.3334 49.3335C35.3334 44.9271 37.3526 40.9686 40.5937 38.4093Z" fill="#E39334"/>
<path fill-rule="evenodd" clip-rule="evenodd" d="M50.08 43.5737C51.1845 43.5737 52.08 44.4692 52.08 45.5737V50.0804C52.08 50.7829 51.7114 51.4339 51.1089 51.7954L47.3756 54.0354C46.4284 54.6037 45.1999 54.2965 44.6316 53.3494C44.0633 52.4022 44.3705 51.1737 45.3176 50.6054L48.08 48.948V45.5737C48.08 44.4692 48.9754 43.5737 50.08 43.5737Z" fill="#E39334"/>
</svg>
