<svg width="26" height="32" viewBox="0 0 26 32" fill="none" xmlns="http://www.w3.org/2000/svg">
<path d="M13 31.75C12.7445 31.75 12.4951 31.7089 12.2507 31.6262C12.0116 31.5454 11.8035 31.4253 11.6239 31.2662C7.77616 27.7803 4.91985 24.5701 3.04602 21.6356C1.1722 18.7012 0.25 15.9898 0.25 13.4963C0.25 9.43332 1.53434 6.22417 4.08609 3.84039C6.65195 1.44343 9.61978 0.25 13 0.25C16.3802 0.25 19.3481 1.44343 21.9139 3.84039C24.4657 6.22417 25.75 9.43332 25.75 13.4963C25.75 15.9898 24.8278 18.7012 22.954 21.6356C21.0802 24.57 18.2239 27.7803 14.3762 31.2661C14.1946 31.4271 13.9913 31.5472 13.765 31.6275C13.538 31.7081 13.2838 31.75 13 31.75Z" fill="#52C41A" stroke="#237804" stroke-width="0.5"/>
</svg>
