<svg width="64" height="64" viewBox="0 0 64 64" fill="none" xmlns="http://www.w3.org/2000/svg">
<path fillRule="evenodd" clipRule="evenodd" d="M45.4142 23.9193C46.1953 24.7003 46.1953 25.9667 45.4142 26.7477L34.2142 37.9477C33.7905 38.3714 33.1992 38.5828 32.6029 38.5238C32.0067 38.4647 31.4683 38.1414 31.1359 37.6429L28.2225 33.2728L21.4142 40.081C20.6332 40.8621 19.3668 40.8621 18.5858 40.081C17.8047 39.3 17.8047 38.0337 18.5858 37.2526L27.1191 28.7193C27.5428 28.2956 28.1341 28.0842 28.7304 28.1432C29.3267 28.2023 29.8651 28.5255 30.1974 29.0241L33.1108 33.3942L42.5858 23.9193C43.3668 23.1382 44.6332 23.1382 45.4142 23.9193Z" fill="#40A9FF"/>
<path fillRule="evenodd" clipRule="evenodd" d="M36.6667 25.3335C36.6667 24.2289 37.5621 23.3335 38.6667 23.3335H44C45.1046 23.3335 46 24.2289 46 25.3335V30.6668C46 31.7714 45.1046 32.6668 44 32.6668C42.8955 32.6668 42 31.7714 42 30.6668V27.3335H38.6667C37.5621 27.3335 36.6667 26.4381 36.6667 25.3335Z" fill="#40A9FF"/>
<path fillRule="evenodd" clipRule="evenodd" d="M8.25243 8.25262C11.811 4.69403 17.1361 3.3335 24 3.3335H40C46.8639 3.3335 52.1889 4.69403 55.7475 8.25262C59.3061 11.8112 60.6666 17.1362 60.6666 24.0002V40.0002C60.6666 46.8641 59.3061 52.1891 55.7475 55.7477C52.1889 59.3063 46.8639 60.6668 40 60.6668H24C17.1361 60.6668 11.811 59.3063 8.25243 55.7477C4.69385 52.1891 3.33331 46.8641 3.33331 40.0002V24.0002C3.33331 17.1362 4.69385 11.8112 8.25243 8.25262ZM11.0809 11.081C8.63944 13.5225 7.33331 17.5308 7.33331 24.0002V40.0002C7.33331 46.4696 8.63944 50.4779 11.0809 52.9193C13.5223 55.3607 17.5306 56.6668 24 56.6668H40C46.4694 56.6668 50.4777 55.3607 52.9191 52.9193C55.3605 50.4779 56.6666 46.4696 56.6666 40.0002V24.0002C56.6666 17.5308 55.3605 13.5225 52.9191 11.081C50.4777 8.63963 46.4694 7.3335 40 7.3335H24C17.5306 7.3335 13.5223 8.63963 11.0809 11.081Z" fill="#40A9FF"/>
</svg>
