<svg viewBox="0 0 20 20" xmlns="http://www.w3.org/2000/svg" focusable="false">
<g clip-path="url(#clip0_833_17514)">
<path d="M10 12.7273C10.7576 12.7273 11.4015 12.4621 11.9318 11.9318C12.4621 11.4015 12.7273 10.7576 12.7273 10C12.7273 9.24242 12.4621 8.59848 11.9318 8.06818C11.4015 7.53788 10.7576 7.27273 10 7.27273C9.24242 7.27273 8.59848 7.53788 8.06818 8.06818C7.53788 8.59848 7.27273 9.24242 7.27273 10C7.27273 10.7576 7.53788 11.4015 8.06818 11.9318C8.59848 12.4621 9.24242 12.7273 10 12.7273ZM10 14.5455C8.74242 14.5455 7.67045 14.1023 6.78409 13.2159C5.89773 12.3295 5.45455 11.2576 5.45455 10C5.45455 8.74242 5.89773 7.67045 6.78409 6.78409C7.67045 5.89773 8.74242 5.45455 10 5.45455C11.2576 5.45455 12.3295 5.89773 13.2159 6.78409C14.1023 7.67045 14.5455 8.74242 14.5455 10C14.5455 11.2576 14.1023 12.3295 13.2159 13.2159C12.3295 14.1023 11.2576 14.5455 10 14.5455ZM0.909091 10.9091C0.651515 10.9091 0.435606 10.822 0.261364 10.6477C0.0871212 10.4735 0 10.2576 0 10C0 9.74242 0.0871212 9.52652 0.261364 9.35227C0.435606 9.17803 0.651515 9.09091 0.909091 9.09091H2.72727C2.98485 9.09091 3.20076 9.17803 3.375 9.35227C3.54924 9.52652 3.63636 9.74242 3.63636 10C3.63636 10.2576 3.54924 10.4735 3.375 10.6477C3.20076 10.822 2.98485 10.9091 2.72727 10.9091H0.909091ZM17.2727 10.9091C17.0152 10.9091 16.7992 10.822 16.625 10.6477C16.4508 10.4735 16.3636 10.2576 16.3636 10C16.3636 9.74242 16.4508 9.52652 16.625 9.35227C16.7992 9.17803 17.0152 9.09091 17.2727 9.09091H19.0909C19.3485 9.09091 19.5644 9.17803 19.7386 9.35227C19.9129 9.52652 20 9.74242 20 10C20 10.2576 19.9129 10.4735 19.7386 10.6477C19.5644 10.822 19.3485 10.9091 19.0909 10.9091H17.2727ZM10 3.63636C9.74242 3.63636 9.52652 3.54924 9.35227 3.375C9.17803 3.20076 9.09091 2.98485 9.09091 2.72727V0.909091C9.09091 0.651515 9.17803 0.435606 9.35227 0.261364C9.52652 0.0871212 9.74242 0 10 0C10.2576 0 10.4735 0.0871212 10.6477 0.261364C10.822 0.435606 10.9091 0.651515 10.9091 0.909091V2.72727C10.9091 2.98485 10.822 3.20076 10.6477 3.375C10.4735 3.54924 10.2576 3.63636 10 3.63636ZM10 20C9.74242 20 9.52652 19.9129 9.35227 19.7386C9.17803 19.5644 9.09091 19.3485 9.09091 19.0909V17.2727C9.09091 17.0152 9.17803 16.7992 9.35227 16.625C9.52652 16.4508 9.74242 16.3636 10 16.3636C10.2576 16.3636 10.4735 16.4508 10.6477 16.625C10.822 16.7992 10.9091 17.0152 10.9091 17.2727V19.0909C10.9091 19.3485 10.822 19.5644 10.6477 19.7386C10.4735 19.9129 10.2576 20 10 20ZM4.22727 5.5L3.25 4.54545C3.06818 4.37879 2.98106 4.16667 2.98864 3.90909C2.99621 3.65152 3.08333 3.43182 3.25 3.25C3.43182 3.06818 3.65152 2.97727 3.90909 2.97727C4.16667 2.97727 4.37879 3.06818 4.54545 3.25L5.5 4.22727C5.66667 4.40909 5.75 4.62121 5.75 4.86364C5.75 5.10606 5.66667 5.31818 5.5 5.5C5.33333 5.68182 5.125 5.76894 4.875 5.76136C4.625 5.75379 4.40909 5.66667 4.22727 5.5ZM15.4545 16.75L14.5 15.7727C14.3333 15.5909 14.25 15.375 14.25 15.125C14.25 14.875 14.3333 14.6667 14.5 14.5C14.6667 14.3182 14.875 14.2311 15.125 14.2386C15.375 14.2462 15.5909 14.3333 15.7727 14.5L16.75 15.4545C16.9318 15.6212 17.0189 15.8333 17.0114 16.0909C17.0038 16.3485 16.9167 16.5682 16.75 16.75C16.5682 16.9318 16.3485 17.0227 16.0909 17.0227C15.8333 17.0227 15.6212 16.9318 15.4545 16.75ZM14.5 5.5C14.3182 5.33333 14.2311 5.125 14.2386 4.875C14.2462 4.625 14.3333 4.40909 14.5 4.22727L15.4545 3.25C15.6212 3.06818 15.8333 2.98106 16.0909 2.98864C16.3485 2.99621 16.5682 3.08333 16.75 3.25C16.9318 3.43182 17.0227 3.65152 17.0227 3.90909C17.0227 4.16667 16.9318 4.37879 16.75 4.54545L15.7727 5.5C15.5909 5.66667 15.3788 5.75 15.1364 5.75C14.8939 5.75 14.6818 5.66667 14.5 5.5ZM3.25 16.75C3.06818 16.5682 2.97727 16.3485 2.97727 16.0909C2.97727 15.8333 3.06818 15.6212 3.25 15.4545L4.22727 14.5C4.40909 14.3333 4.625 14.25 4.875 14.25C5.125 14.25 5.33333 14.3333 5.5 14.5C5.68182 14.6667 5.76894 14.875 5.76136 15.125C5.75379 15.375 5.66667 15.5909 5.5 15.7727L4.54545 16.75C4.37879 16.9318 4.16667 17.0189 3.90909 17.0114C3.65152 17.0038 3.43182 16.9167 3.25 16.75Z" fill="currentColor" />
</g>
<defs>
<clipPath id="clip0_833_17514">
<rect width="20" height="20" fill="currentColor"/>
</clipPath>
</defs>
</svg>
