<svg width="100%" height="100%" viewBox="0 0 166 32" fill="none" xmlns="http://www.w3.org/2000/svg">
  <g id="service-plus-logo-text">
    <path d="M133.109 17.9126H129.072V16.3067H133.109C133.89 16.3067 134.523 16.184 135.007 15.9385C135.492 15.693 135.844 15.3521 136.066 14.9156C136.294 14.4792 136.408 13.9814 136.408 13.4223C136.408 12.9108 136.294 12.4301 136.066 11.98C135.844 11.53 135.492 11.1686 135.007 10.8958C134.523 10.6162 133.89 10.4764 133.109 10.4764H129.539V23.7532H127.537V8.86028H133.109C134.25 8.86028 135.215 9.05463 136.004 9.44332C136.792 9.83201 137.39 10.3707 137.799 11.0594C138.207 11.7414 138.411 12.5221 138.411 13.4018C138.411 14.3565 138.207 15.1714 137.799 15.8465C137.39 16.5215 136.792 17.0364 136.004 17.391C135.215 17.7388 134.25 17.9126 133.109 17.9126Z" fill="currentColor"/>
    <path d="M142.737 8.04199V23.7532H140.808V8.04199H142.737Z" fill="currentColor"/>
    <path d="M152.688 21.196V12.6858H154.618V23.7532H152.781L152.688 21.196ZM153.051 18.8639L153.85 18.8435C153.85 19.5799 153.77 20.2618 153.611 20.8892C153.459 21.5097 153.21 22.0484 152.864 22.5053C152.518 22.9622 152.065 23.3202 151.505 23.5793C150.945 23.8316 150.263 23.9578 149.461 23.9578C148.915 23.9578 148.413 23.8794 147.956 23.7225C147.507 23.5657 147.119 23.3236 146.794 22.9963C146.469 22.669 146.217 22.2428 146.037 21.7177C145.864 21.1926 145.778 20.5619 145.778 19.8254V12.6858H147.697V19.8459C147.697 20.3437 147.752 20.7562 147.863 21.0835C147.981 21.404 148.136 21.6597 148.33 21.8507C148.531 22.0348 148.752 22.1644 148.994 22.2394C149.243 22.3144 149.499 22.3519 149.762 22.3519C150.578 22.3519 151.225 22.1985 151.702 21.8916C152.179 21.5779 152.522 21.1585 152.729 20.6335C152.944 20.1016 153.051 19.5117 153.051 18.8639Z" fill="currentColor"/>
    <path d="M164.08 20.8176C164.08 20.5448 164.018 20.2925 163.894 20.0607C163.776 19.822 163.531 19.6072 163.157 19.4163C162.79 19.2185 162.237 19.048 161.497 18.9048C160.874 18.7753 160.311 18.6218 159.806 18.4445C159.308 18.2672 158.882 18.0524 158.529 17.8001C158.184 17.5478 157.917 17.2512 157.73 16.9102C157.544 16.5693 157.45 16.1704 157.45 15.7135C157.45 15.2771 157.547 14.8645 157.741 14.4758C157.941 14.0871 158.222 13.7428 158.581 13.4427C158.948 13.1427 159.387 12.9074 159.899 12.7369C160.411 12.5665 160.982 12.4812 161.611 12.4812C162.51 12.4812 163.278 12.6381 163.914 12.9517C164.551 13.2654 165.039 13.6848 165.377 14.2099C165.716 14.7281 165.886 15.3043 165.886 15.9385H163.966C163.966 15.6317 163.873 15.335 163.686 15.0486C163.506 14.7554 163.24 14.5133 162.887 14.3224C162.541 14.1315 162.116 14.036 161.611 14.036C161.078 14.036 160.646 14.1178 160.314 14.2815C159.989 14.4383 159.75 14.6395 159.598 14.885C159.453 15.1305 159.38 15.3896 159.38 15.6623C159.38 15.8669 159.415 16.051 159.484 16.2147C159.56 16.3715 159.692 16.5181 159.878 16.6545C160.065 16.7841 160.328 16.9068 160.667 17.0228C161.006 17.1387 161.438 17.2546 161.964 17.3705C162.884 17.5751 163.641 17.8206 164.236 18.107C164.831 18.3934 165.274 18.7446 165.564 19.1605C165.855 19.5765 166 20.0811 166 20.6744C166 21.1585 165.896 21.6018 165.689 22.0041C165.488 22.4064 165.194 22.7542 164.807 23.0474C164.426 23.3338 163.97 23.5589 163.437 23.7225C162.911 23.8794 162.32 23.9578 161.663 23.9578C160.674 23.9578 159.837 23.7839 159.152 23.4361C158.467 23.0883 157.948 22.6383 157.596 22.0859C157.243 21.5336 157.066 20.9506 157.066 20.3368H158.996C159.024 20.8551 159.176 21.2676 159.453 21.5745C159.73 21.8745 160.069 22.0893 160.47 22.2189C160.871 22.3417 161.269 22.403 161.663 22.403C162.189 22.403 162.628 22.3348 162.981 22.1985C163.34 22.0621 163.614 21.8745 163.8 21.6359C163.987 21.3972 164.08 21.1244 164.08 20.8176Z" fill="currentColor"/>
    <path d="M47.2291 23.8345C44.4961 23.8345 41.8954 23.0044 40 21.3656L42.3803 18.62C43.9011 19.7906 45.5981 20.4078 47.3834 20.4078C48.5294 20.4078 49.1465 20.0247 49.1465 19.3862V19.3436C49.1465 18.7264 48.6396 18.3859 46.5458 17.9176C43.2619 17.194 40.7273 16.3001 40.7273 13.2352V13.1926C40.7273 10.4258 42.9974 8.4251 46.7001 8.4251C49.3229 8.4251 51.3726 9.10618 53.0476 10.4045L50.9097 13.3203C49.4992 12.3626 47.9564 11.8518 46.5899 11.8518C45.554 11.8518 45.0471 12.2774 45.0471 12.8095V12.8521C45.0471 13.5332 45.5761 13.8311 47.714 14.2994C51.2624 15.0443 53.4664 16.1511 53.4664 18.9392V18.9818C53.4664 22.0254 50.9759 23.8345 47.2291 23.8345Z" fill="currentColor"/>
    <path d="M61.2099 23.8558C57.4631 23.8558 54.8184 21.4507 54.8184 17.875V17.8325C54.8184 14.4697 57.3089 11.8092 60.8352 11.8092C64.9567 11.8092 66.8521 14.7251 66.8521 18.1092C66.8521 18.3646 66.8521 18.6625 66.8301 18.9392H58.8517C59.1823 20.195 60.13 20.8335 61.4303 20.8335C62.4221 20.8335 63.2155 20.4717 64.0751 19.6629L66.3893 21.5146C65.2432 22.9193 63.5902 23.8558 61.2099 23.8558ZM58.7855 16.8747H62.929C62.7748 15.5977 62.0034 14.7889 60.8573 14.7889C59.7553 14.7889 59.0059 15.619 58.7855 16.8747Z" fill="currentColor"/>
    <path d="M68.6477 23.5791V12.0646H72.8353V14.3845C73.5185 12.8095 74.6205 11.7879 76.6041 11.8731V16.1298H76.2514C74.0695 16.1298 72.8353 17.343 72.8353 20.0034V23.5791H68.6477Z" fill="currentColor"/>
    <path d="M81.9319 23.6642L77.1713 12.0646H81.5792L83.8714 18.7902L86.1635 12.0646H90.5054L85.7448 23.6642H81.9319Z" fill="currentColor"/>
    <path d="M91.8498 11.0217V8.04199H96.2137V11.0217H91.8498ZM91.938 23.5791V12.0646H96.1255V23.5791H91.938Z" fill="currentColor"/>
    <path d="M104.21 23.8558C100.617 23.8558 97.9726 21.1314 97.9726 17.875V17.8325C97.9726 14.5761 100.595 11.8305 104.364 11.8305C106.811 11.8305 108.442 12.8521 109.455 14.4058L106.612 16.449C106.039 15.6828 105.4 15.2359 104.386 15.2359C103.042 15.2359 102.05 16.3852 102.05 17.7899V17.8325C102.05 19.3223 103.02 20.4504 104.43 20.4504C105.422 20.4504 106.061 20.0034 106.722 19.2585L109.521 21.2166C108.419 22.7916 106.833 23.8558 104.21 23.8558Z" fill="currentColor"/>
    <path d="M116.589 23.8558C112.843 23.8558 110.198 21.4507 110.198 17.875V17.8325C110.198 14.4697 112.688 11.8092 116.215 11.8092C120.336 11.8092 122.232 14.7251 122.232 18.1092C122.232 18.3646 122.232 18.6625 122.21 18.9392H114.231C114.562 20.195 115.509 20.8335 116.81 20.8335C117.802 20.8335 118.595 20.4717 119.455 19.6629L121.769 21.5146C120.623 22.9193 118.97 23.8558 116.589 23.8558ZM114.165 16.8747H118.308C118.154 15.5977 117.383 14.7889 116.237 14.7889C115.135 14.7889 114.385 15.619 114.165 16.8747Z" fill="currentColor"/>
  </g>

  <g id="service-plus-logo-icon">
    <rect width="32" height="100%" rx="8" fill="#096DD9"/>
    <path fill-rule="evenodd" clip-rule="evenodd" d="M16 4.80005C11.5817 4.80005 8 8.44689 8 12.9455C8 14.4291 8.38958 15.8201 9.07026 17.0182L16 27.2L22.9297 17.0182C23.6104 15.8201 24 14.4291 24 12.9455C24 8.44689 20.4183 4.80005 16 4.80005Z" fill="white"/>
    <circle cx="16" cy="12.7999" r="6.4" fill="#FFD8BF"/>
    <circle cx="16" cy="12.8" r="4.8" fill="#FFBB96"/>
    <circle cx="16" cy="12.8001" r="3.2" fill="#FA541C"/>
  </g>
</svg>
